<?xml version="1.0" encoding="UTF-8"?>
<svg width="744.09" height="1052.4" fill-rule="evenodd" image-rendering="optimizeQuality" shape-rendering="geometricPrecision" text-rendering="geometricPrecision" viewBox="0 0 210 297" xmlns="http://www.w3.org/2000/svg" xmlns:xlink="http://www.w3.org/1999/xlink">
 <defs>
  <clipPath id="c">
   <path d="m95.596 202.93h24.045v6.325h-24.045v-6.325z"/>
  </clipPath>
  <linearGradient id="b" x1="80.911" x2="88.525" gradientUnits="userSpaceOnUse">
   <stop stop-color="#b6b1d4" offset="0"/>
   <stop stop-color="#d4d4e2" offset=".4706"/>
   <stop stop-color="#b6b1d4" offset="1"/>
  </linearGradient>
  <linearGradient id="a" x1="88.525" x2="98.503" gradientUnits="userSpaceOnUse">
   <stop stop-color="#c0c0bf" offset="0"/>
   <stop stop-color="#fff" offset=".4706"/>
   <stop stop-color="#c0c0bf" offset="1"/>
  </linearGradient>
 </defs>
 <path d="m14.953 237.71c59.492 0 120.6-16.834 180.09-16.834 0-56.889 0-88.986-1.617-144.07-0.4382-14.929-7.3092-17.694-17.556-17.502-47.506 0.8894-88.234 6.5268-136.25 5.1648-6.5918-0.1869-12.836 4.8689-13.912 21.989-3.3071 52.603-2.9699 91.253-10.754 151.25z" fill="#a6a35e"/>
 <path d="m56.544 67.228c39.012 0.4846 78.024 1.6727 117.04 0v141.89h-117.04v-141.89z" fill="#7c7946"/>
 <path d="m157.68 83.26h-84.438v110.36h84.438z" fill="#ddf0f4"/>
 <path d="m125.58 83.26c9.7319 4.2337 20.534 7.3974 32.1 9.7967v6.2088c-14.868-5.1114-29.106-10.411-42.364-16.006h10.264zm-52.337 3.7098v3.4916c26.45 13.604 54.825 26.8 84.437 39.734v-11.894c-26.887-7.7802-56.544-19.302-78.113-31.346l-6.3247 0.0142zm0 21.294v7.4303c26.664 13.473 54.993 26.593 84.437 39.477v-12.985c-29.119-8.5277-60.965-20.933-84.437-33.922zm0 26.093v7.3933c26.672 13.453 55.001 26.555 84.437 39.423v-13.102c-29.006-8.4379-60.828-20.766-84.437-33.714zm0 10.558v7.7855c21.379 13.75 43.959 27.377 67.397 40.916h12.702l0.9555-6.3638c-27.9-11.285-58.494-26.888-81.054-42.337zm0 24.253v4.4135c9.1956 6.6998 18.955 13.375 29.109 20.034h3.0154l1.0027-4.7426c-12.066-5.7349-22.989-12.15-32.241-19.559l-0.8868-0.1465z" fill="#fff"/>
 <path d="m31.392 230.82c10.008-0.602 19.602-2.1618 28.031-4.5833 8.1234-2.3337 15.151-5.4636 20.404-9.3022l0.8814 1.2024c-5.4026 3.9476-12.591 7.1554-20.877 9.5357-8.526 2.4493-18.23 4.027-28.352 4.6358l-0.0875-1.4884z" fill="#bb2921" fill-rule="nonzero"/>
 <path d="m111.768,135.01c-.4984.4672-1.0509.9012-1.6033,1.3351-1.4763,1.1597-2.9527,2.3195-2.8328,3.7686 .2241,2.7071 2.573,3.9142 4.8642,5.0917 2.7689,1.423 5.4659,2.8091 5.2897,6.4945-.1204,2.519-2.4966,3.068-5.0851,3.666-2.6825.6198-5.6503,1.3055-5.3389,4.7854 .2621,2.9292 3.5434,4.2588 6.8825,5.6117 3.1654,1.2826 6.3777,2.5842 7.6797,5.3604 .1862.3971.2795.8354.2923,1.3018 .0412,1.5005-.7784,3.347-1.9718,4.9735-1.1722,1.5976-2.728,3.0191-4.1867,3.7032-.592.2777-1.1784.4403-1.7334.4555-3.9509.1085-6.5199,1.0016-8.4219,2.3646-1.9074,1.3669-3.1946,3.2494-4.536,5.2932l-1.2491-.8171c1.4235-2.169 2.7945-4.1703 4.9154-5.6902 2.1262-1.5237 4.9558-2.521 9.2507-2.6389 .3432-.0094.7318-.1222 1.1439-.3154 1.231-.5774 2.5764-1.8212 3.6147-3.2363 1.0171-1.3862 1.7173-2.9002 1.6858-4.0513-.0074-.2665-.056-.507-.1522-.7122-1.0509-2.2407-3.9928-3.4327-6.8917-4.6074-3.763-1.5247-7.4608-3.023-7.8048-6.8667-.4268-4.7695 3.2056-5.6087 6.4888-6.3672 2.014-.4653 3.8629-.8925 3.9293-2.2826 .1305-2.7279-2.1465-3.8981-4.4841-5.0995-2.6553-1.3646-5.3775-2.7635-5.6697-6.2941-.1861-2.2483 1.6065-3.6564 3.3989-5.0644 .3166-.2487.6331-.4973.9334-.7475 .5307.195 1.0605.3962 1.5922.5856z" fill="#bb2921" fill-rule="nonzero"/>
 <path d="m78.397 232.9c15.44-1.971 30.912-4.2667 46.36-6.3212v-31.087h4.2753v-7.081h-54.911v7.081h4.2753v37.408z" fill="#a6a35e"/>
 <path d="m78.397 232.9c15.44-1.971 30.912-4.2667 46.36-6.3212v-31.087h4.2753v-7.081h-54.911v7.081h4.2753v37.408z" fill="#a6a35e"/>
 <path d="m74.122 195.49h4.2753v37.408c15.44-1.971 30.912-4.2667 46.36-6.3212v-31.087h4.2753v-7.081h-54.911v7.081z" fill="#23201d" stroke="#23201d" stroke-width=".0762"/>
 <path d="m88.525 188.41v-15.894c0-2.4611-1.613-4.4746-3.5844-4.4746h-0.4445c-1.9714 0-3.5845 2.0136-3.5845 4.4746v15.894h7.6134z" fill="url(#b)"/>
 <path d="m83.4991,163.729h2.4376v4.3513c-.3166-.1152-.6511-.1772-.9965-.1772h-.4445c-.3455,0-.6799.062-.9966.1772v-4.3513z" fill="#23201d" stroke="#23201d" stroke-width=".0762"/>
 <path d="m98.503 188.41v-17.765c0-2.7506-2.1141-5.001-4.698-5.001h-0.5825c-2.5839 0-4.698 2.2505-4.698 5.001v17.765h9.9785z" fill="url(#a)"/>
 <path d="m91.9164,160.826h3.1949v4.8632c-.4151-.1287-.8534-.1981-1.3062-.1981h-.5825c-.4528,0-.8911.0694-1.3062.1981v-4.8632z" fill="#23201d" stroke="#23201d" stroke-width=".0762"/>
 <path d="m82.778 199.43h37.6v9.2162h-37.6v-9.2162zm0 32.901c12.526-1.6441 25.068-3.4665 37.6-5.1655v-2.825h-37.6v7.9905zm0-20.479h37.6v9.2162h-37.6v-9.2162z" fill="#414143" stroke="#23201d" stroke-width=".0762"/>
 <path d="m84.351 213.68h10.452v2.4377h-10.452v-2.4377zm0 3.6064h10.452v3.5395h-10.452v-3.5395z" fill="#fff"/>
 <g clip-path="url(#c)">
  <image transform="translate(-9.4039 60.756)" x="105" y="142.18" width="24.045" height="6.325" xlink:href="barbershop_Images\barbershop_ImgID1.png"/>
 </g>
 <path d="m96.8754,206.438c.7429-.0386 1.0593.436 1.8004.502 3.2936.2935 6.8099.3781 10.101.0581 1.2596-.1224 2.461-1.0504 3.6976-1.3196 1.0659-.2321 2.4786-.17 3.5486.0427 1.0337.2055 1.9121.4579 2.8089,1.0115 .9432.5823-.2911,1.3357-.8874,1.4847-.7278.1819-1.5374-.3144-2.2729-.4625-.7753-.1562-2.2475-.2933-3.0212.0199-1.0555.4274-2.3865.8301-3.5229.9017-4.3412.2733-8.1675.0625-11.1863-.167-.8583-.0653-1.8161-.2284-1.9801-1.2441-.0649-.402.4103-.8012.9143-.8274z" fill="#742e2e"/>
 <path d="m96.8585,206.479c.7091-.0295 1.0295.4288 1.7419.4965 .7982.0801 1.6064.1399 2.4282.1831 .981.0542 1.9662.0862 2.9541.0845 1.6731.014 3.3516-.0695 4.9668-.2395 1.242-.1319 2.4645-1.0138 3.6865-1.2621 1.0303-.2183 2.3865-.1399 3.42.0672 .9993.2002 1.8576.4475 2.7271.9712 .9065.5529-.2481,1.2614-.8087,1.3955-.6939.1727-1.4654-.3002-2.1664-.4416-.7781-.1707-2.22-.3114-3.0023-.0212-1.0527.3985-2.3831.7792-3.5131.8568-1.0594.0702-2.0881.1176-3.0798.1419-1.0012.0282-1.9682.0344-2.8985.0153-1.054-.0085-2.0737-.0497-3.0444-.1081-.8324-.0473-1.6132-.1072-2.3513-.1696-.8266-.0657-1.7463-.2234-1.9125-1.1903-.0669-.3826.375-.7592.8524-.7796z" fill="#762e2e" fill-opacity=".9686"/>
 <path d="m96.8417,206.52c.6754-.0202.9996.4216 1.6832.4909 .7729.0869 1.5522.1462 2.3514.1886 1.1177.0642 2.2371.0998 3.3619.0879 1.6439.0102 3.2991-.0984 4.8842-.2782 1.2239-.1415 2.4678-.9771 3.6751-1.2047 .9949-.2043 2.2944-.1099 3.2919.0917 .9644.1949 1.8024.4371 2.6449.931 .8697.5233-.2051,1.1871-.7299,1.3062-.66.1638-1.3936-.2859-2.06-.4205-.7808-.1854-2.1926-.3297-2.9832-.0626-1.0501.3697-2.3802.7285-3.5035.812-1.0334.072-2.0377.1289-3.005.1623-.9857.0412-1.9403.0619-2.8626.047-1.1693.0067-2.3119-.0363-3.4024-.1052-.8141-.0467-1.5701-.1105-2.2918-.178-.7947-.0663-1.6764-.2186-1.8449-1.1365-.0688-.3633.3395-.7173.7907-.7319z" fill="#792e2e" fill-opacity=".9333"/>
 <path d="m96.8249,206.561c.6413-.0112.9697.4144 1.6245.4853 .7478.0937 1.498.1524 2.2747.1939 1.2545.0742 2.508.1137 3.7695.091 1.6149.0065 3.2467-.1268 4.8016-.3165 1.2059-.151 2.4711-.9406 3.6639-1.1472 .9594-.1906 2.2023-.0799 3.1634.1162 .9298.1897 1.7479.4266 2.5631.8908 .8327.4936-.1623,1.1125-.6514,1.217-.6258.1545-1.3217-.2719-1.9535-.3997-.7835-.2-2.1651-.3478-2.9642-.1037-1.0475.3408-2.377.6777-3.4936.7671-1.0076.0737-1.9875.1399-2.9303.1828-.9704.0542-1.9123.0892-2.8265.0786-1.285.0218-2.5504-.0229-3.7606-.1025-.7955-.0461-1.5271-.1138-2.2322-.1864-.7629-.0667-1.6065-.2135-1.7774-1.0826-.0708-.3439.3042-.6755.729-.6841z" fill="#7c2f2d" fill-opacity=".902"/>
 <path d="m96.8081,206.602c.6074-.0019.9397.4071 1.5659.4798 .7225.1004 1.4437.1586 2.198.1993 1.391.0842 2.7787.1273 4.177.0943 1.5856.0026 3.1943-.1555 4.7189-.3552 1.1881-.1606 2.4745-.9039 3.6527-1.0896 .9238-.1767 2.1101-.0499 3.035.1406 .8953.1844 1.6931.4163 2.4813.8504 .7959.4643-.1193,1.0384-.5727,1.1279-.592.1455-1.2499-.2578-1.8471-.3786-.7862-.2147-2.1377-.3662-2.9452-.145-1.0449.3118-2.3739.6269-3.484.7223-.9816.0755-1.937.1512-2.8552.2031-.9552.0673-1.8846.1165-2.7908.1103-1.4005.0369-2.7888-.0095-4.1186-.0996-.7769-.0457-1.484-.1173-2.1725-.1948-.7311-.0673-1.5368-.2086-1.71-1.0288-.0726-.3246.2688-.6337.6673-.6364z" fill="#7e2f2d" fill-opacity=".8667"/>
 <path d="m96.7913,206.643c.5734.0071.9097.3998 1.5072.4743 .6974.1072 1.3894.1648 2.1211.2046 1.528.0943 3.0498.1411 4.585.0976 1.5564-.0012 3.1418-.1841 4.6361-.3937 1.1701-.17 2.4779-.8672 3.6414-1.0321 .8884-.1629 2.0181-.0199 2.9068.165 .8605.1792 1.6383.4059 2.3992.8102 .7591.4346-.0762.964-.494,1.0385-.5579.1365-1.178-.2434-1.7407-.3576-.7889-.2292-2.1102-.3842-2.9262-.186-1.042.2829-2.3707.5761-3.4741.6772-.9558.0774-1.8868.1625-2.7806.2238-.9396.0801-1.8565.1436-2.7548.1417-1.5161.0523-3.0271.004-4.4767-.0968-.7583-.0452-1.4408-.1203-2.1129-.203-.6992-.0679-1.4669-.2036-1.6423-.9751-.0747-.3051.2334-.5915.6055-.5886z" fill="#822f2d" fill-opacity=".8353"/>
 <path d="m96.7745,206.684c.5396.0164.8799.3926 1.4485.4686 .6722.114 1.3351.171 2.0444.2099 1.6647.1043 3.3205.1549 4.9927.1009 1.5273-.0048 3.0894-.2126 4.5533-.4321 1.1524-.1796 2.4813-.8306 3.6302-.9746 .853-.1492 1.926.0101 2.7784.1894 .8259.174 1.5834.3956 2.3173.7701 .7222.405-.0333.8896-.4154.9493-.5239.1272-1.106-.2295-1.6341-.3367-.7916-.244-2.0828-.4025-2.9073-.2274-1.0394.2541-2.3674.5254-3.4644.6325l-2.7056.244c-.9244.0935-1.8285.1712-2.719.1737-1.6315.0673-3.2655.0173-4.8347-.0941-.7399-.0447-1.3978-.1238-2.0533-.2114-.6676-.0686-1.3972-.1988-1.5748-.9213-.0767-.2859.1979-.5497.5438-.5408z" fill="#852f2c" fill-opacity=".8039"/>
 <path d="m96.7576,206.726c.5057.0254.85.3852 1.3899.463 .6471.1209 1.2809.1772 1.9676.2152 1.8016.1144 3.5914.1689 5.4004.1043 1.4982-.0088 3.0369-.2412 4.4707-.4708 1.1344-.1892 2.4846-.7939 3.619-.9171 .8172-.1354 1.8339.0402 2.6499.2139 .7914.1687 1.5289.3853 2.2354.7298 .6854.3755.0098.8152-.3367.86-.4899.1184-1.0342-.215-1.5277-.3156-.7943-.2585-2.0553-.4206-2.8882-.2685-1.0368.2251-2.3644.4746-3.4547.5875-.9039.081-1.786.185-2.6307.2645-.9091.1065-1.8008.1985-2.6831.2052-1.7472.0826-3.5039.0308-5.1928-.0912-.7213-.0442-1.3548-.1269-1.9937-.2197-.6359-.0691-1.3274-.1938-1.5073-.8676-.0786-.2664.1626-.5078.482-.4929z" fill="#872f2b" fill-opacity=".7686"/>
 <path d="m96.7409,206.766c.4716.0348.8199.3782 1.3312.4575 .6217.1277 1.2266.1835 1.8909.2208 1.9383.1242 3.8621.1823 5.8079.1072 1.4691-.0124 2.9846-.2698 4.3882-.5091 1.1165-.1988 2.4879-.7573 3.6075-.8596 .7819-.1216 1.742.0702 2.5217.2383 .7566.1633 1.4741.3748 2.1534.6895 .6486.346.0528.741-.2579.7709-.4559.1092-.9624-.201-1.4213-.2947-.7971-.2732-2.0279-.4388-2.8692-.3098-1.0342.1964-2.3612.4238-3.4449.5428-.878.0827-1.7359.196-2.556.2849-.8936.1195-1.7727.2258-2.6471.2368-1.8626.0977-3.7422.0441-5.5509-.0885-.7028-.0437-1.3118-.1302-1.9341-.228-.6039-.0696-1.2575-.1888-1.4397-.8137-.0807-.247.1271-.4659.4203-.4453z" fill="#892d2a" fill-opacity=".7373"/>
 <path d="m96.7241,206.808c.4377.0438.7901.3708 1.2724.4519 .5967.1345 1.1724.1899 1.8142.226 2.075.1344 4.1332.1962 6.2159.1107 1.4397-.0163 2.932-.2983 4.3051-.5477 1.0987-.2083 2.4915-.7207 3.5965-.8022 .7464-.1077 1.6498.1003 2.3932.263 .7222.158 1.4194.3643 2.0716.6492 .6116.3164.0957.6665-.1793.6817-.422.1001-.8905-.187-1.3148-.2738-.7998-.2878-2.0005-.4571-2.8502-.351-1.0315.1674-2.3581.373-3.4352.4978-.8521.0845-1.6855.2073-2.481.3053-.8784.1326-1.7451.2531-2.6113.2686-1.9784.1128-3.9806.0575-5.9089-.0856-.6843-.0432-1.2688-.1335-1.8747-.2365-.5721-.0701-1.1875-.1838-1.3721-.76-.0824-.2275.0917-.4238.3586-.3974z" fill="#8e2d2a" fill-opacity=".7059"/>
 <path d="m96.7073,206.849c.4038.053.7601.3635 1.2138.4464 .5714.1412 1.1181.1959 1.7373.2313 2.2119.1445 4.4041.21 6.6234.114 1.4109-.02 2.8798-.3271 4.2227-.5864 1.0808-.2177 2.4948-.6838 3.5852-.7445 .7109-.0939 1.5577.1303 2.2649.2874 .6875.1527 1.3644.3538 1.9896.609 .5749.2866.1387.5922-.1007.5923-.3879.091-.8185-.1727-1.2082-.2528-.8026-.3023-1.9731-.4752-2.8313-.3922-1.0287.1386-2.3548.3223-3.4254.4531-.8261.0862-1.6352.2184-2.4062.3257-.8631.1456-1.7172.2803-2.5753.3001-2.0939.1281-4.2191.0709-6.2672-.0828-.6656-.0427-1.2255-.1369-1.8149-.2447-.5403-.0705-1.1177-.179-1.3046-.7062-.0843-.2082.0563-.382.2969-.3497z" fill="#912d29" fill-opacity=".6706"/>
 <path d="m96.6905,206.89c.37.0623.7301.3565 1.1552.4408 .5461.1481 1.0639.2025 1.6606.2367 2.3485.1545 4.6748.2238 7.0311.1174 1.3816-.0239 2.8272-.3556 4.1398-.625 1.063-.2272 2.4982-.6473 3.5741-.687 .6753-.0801 1.4655.1604 2.1364.3118 .6529.1476 1.3099.3436 1.9077.5688 .5381.2572.1818.5179-.0219.5032-.3541.0819-.7468-.1586-1.1019-.2319-.8053-.3169-1.9456-.4932-2.8123-.4334-1.0261.1097-2.3516.2715-3.4156.4081-.8003.0882-1.5848.2298-2.3313.3462-.8477.1587-1.6892.3078-2.5394.3318-2.2095.1431-4.4576.0843-6.6252-.08-.6471-.0421-1.1826-.1402-1.7554-.2531-.5085-.0712-1.048-.174-1.2371-.6524-.0864-.1888.0211-.3402.2352-.302z" fill="#942d29" fill-opacity=".6392"/>
 <path d="m96.6737,206.931c.336.0715.7002.3491 1.0965.4351 .5209.1548 1.0096.2086 1.5839.2421 2.4852.1646 4.9456.2376 7.4387.1206 1.3526-.0277 2.7748-.3842 4.0572-.6635 1.045-.2366 2.5015-.6106 3.5628-.6294 .6398-.0662 1.3734.1903 2.0082.3362 .6182.1422 1.255.3332 1.8257.5284 .5013.2278.2246.4436.0567.414-.3201.073-.6747-.1442-.9955-.2108-.8078-.3316-1.9181-.5115-2.7931-.4746-1.0235.0808-2.3486.2208-3.4062.3633-.7741.0899-1.5342.241-2.2563.3667-.8324.1716-1.6612.3349-2.5036.3633-2.3249.1583-4.6957.0978-6.9831-.0772-.6286-.0415-1.1396-.1435-1.6958-.2613-.4768-.0717-.9782-.1692-1.1695-.5987-.0884-.1696-.0144-.2983.1734-.2542z" fill="#972d29" fill-opacity=".6039"/>
 <path d="m96.6569,206.972c.3021.0805.6702.3419 1.0379.4296 .4958.1616.9552.2147 1.507.2475 2.622.1745 5.2167.2513 7.8466.1238 1.3232-.0316 2.7222-.4128 3.9745-.7021 1.027-.2462 2.5047-.5738 3.5515-.5719 .6043-.0524 1.2814.2204 1.8797.3606 .5835.137 1.2003.323 1.7438.4884 .4645.198.2677.3691.1354.3247-.286.0637-.6029-.1302-.8891-.1899-.8105-.3462-1.8906-.5296-2.7741-.5158-1.0207.0518-2.3454.1699-3.3962.3184-.7485.0917-1.4841.2521-2.1816.3869-.817.1849-1.6334.3624-2.4677.3952-2.4405.1734-4.9342.1112-7.3412-.0744-.6102-.0411-1.0965-.1468-1.6363-.2699-.4449-.072-.9082-.164-1.1019-.5448-.0902-.1501-.0497-.2562.1117-.2063z" fill="#9c2c27" fill-opacity=".5725"/>
 <path d="m96.6401,207.013c.2683.0898.6402.3347.9792.4241 .4706.1684.9011.221 1.4303.2528 2.7587.1846 5.4875.265 8.2542.1271 1.2942-.0354 2.67-.4414 3.8918-.7404 1.0092-.2559 2.5083-.5373 3.5404-.5145 .5688-.0386 1.1892.2504 1.7513.385 .5489.1318 1.1455.3124 1.6619.448 .4275.1687.3107.2949.2141.2357-.2522.0545-.531-.1162-.7825-.1689-.8134-.361-1.8633-.5479-2.7553-.5572-1.0181.0231-2.3423.1192-3.3865.2735-.7224.0936-1.4337.2635-2.1067.4075-.8016.1979-1.6055.3896-2.4319.4268-2.5559.1887-5.1724.1245-7.6992-.0716-.5916-.0407-1.0535-.1501-1.5766-.2782-.4132-.0726-.8385-.1591-1.0344-.4911-.0923-.1307-.0852-.2143.0499-.1586z" fill="#9e2c27" fill-opacity=".5412"/>
 <path d="m96.6232,207.054c.2343.0988.6105.3275.9206.4185 .4454.1751.8468.2272 1.3535.2581 2.8956.1945 5.7584.2788 8.6619.1304 1.265-.0392 2.6176-.4699 3.8092-.779 .9914-.2654 2.5115-.5007 3.529-.457 .5333-.0248 1.0972.2804 1.623.4095 .5143.1265 1.0909.3022 1.58.4077 .3907.1392.3535.2207.2927.1464-.2181.0455-.4591-.1018-.6761-.1479-.816-.3755-1.8358-.5662-2.7362-.5983-1.0154-.0058-2.339.0683-3.3768.2287-.6964.0953-1.3833.2747-2.0316.4279-.7865.2109-1.5778.4169-2.396.4584-2.6717.2039-5.4109.1379-8.0575-.0687-.573-.0402-1.0102-.1534-1.5169-.2865-.3814-.0732-.7687-.1544-.9669-.4374-.0942-.1113-.1206-.1724-.0119-.1108z" fill="#a22c26" fill-opacity=".5059"/>
 <path d="m96.6064,207.095c.2005.108.5806.3201.8619.4128 .4202.182.7925.2335 1.2769.2635 3.0322.2047 6.0291.2926 9.0696.1337 1.2358-.0429 2.565-.4986 3.7264-.8175 .9734-.2749 2.5148-.4641 3.5177-.3995 .4979-.011 1.0051.3104 1.4946.434 .4797.1212 1.0361.2916 1.4981.3675 .3539.1096.3966.1462.3714.057-.1841.0365-.3872-.0876-.5695-.1269-.8188-.3901-1.8085-.5843-2.7174-.6394-1.0128-.0348-2.3358.0174-3.3669.1837-.6706.0972-1.333.2858-1.9569.4485-.771.2239-1.5498.4442-2.3601.4899-2.7872.219-5.6493.1513-8.4154-.066-.5545-.0396-.9673-.1566-1.4575-.2947-.3496-.0738-.6989-.1494-.8993-.3836-.0962-.0919-.1559-.1305-.0736-.063z" fill="#a52c26" fill-opacity=".4745"/>
 <path d="m96.5897,207.136c.1664.1173.5505.3129.8032.4074 .3949.1887.7383.2397 1.2001.2689 3.1689.2145 6.2999.3063 9.4772.1369 1.2067-.0467 2.5127-.5273 3.6438-.856 .9554-.2845 2.5181-.4274 3.5064-.342 .4624.0027.9131.3405 1.3664.4584 .4449.116.9813.2813 1.416.3273 .317.0799.4395.0719.4502-.0322-.1501.0274-.3155-.0734-.4632-.1059-.8215-.4048-1.781-.6024-2.6983-.6807-1.0101-.0638-2.3327-.0333-3.3573.1389-.6446.0989-1.2827.297-1.8819.4687-.7559.237-1.522.4716-2.3243.5218-2.9028.2341-5.8876.1646-8.7735-.0633-.5359-.039-.9243-.1598-1.3977-.303-.318-.0743-.6291-.1445-.8318-.3299-.0981-.0725-.1915-.0886-.1353-.0153z" fill="#ab2c23" fill-opacity=".4431"/>
 <path d="m96.5727,207.177c.1327.1263.5208.3057.7446.4018 .3698.1954.6841.2459 1.1234.2742 3.3059.2245 6.5708.3201 9.8849.1403 1.1777-.0506 2.4603-.5559 3.5611-.8947 .9376-.294 2.5217-.3907 3.4954-.2845 .4266.0166.8208.3706 1.2378.4829 .4103.1108.9265.2708 1.3341.287 .2803.0504.4826-.0024.5289-.1213-.1161.0184-.2435-.0593-.3567-.0851-.8242-.4193-1.7535-.6205-2.6794-.7219-1.0073-.0926-2.3295-.084-3.3475.0941-.6188.1007-1.2324.3083-1.807.4892-.7405.2502-1.4941.499-2.2885.5534-3.0181.2493-6.1261.178-9.1314-.0604-.5174-.0386-.8812-.1632-1.3383-.3115-.2861-.0748-.5592-.1394-.7642-.276-.1001-.0531-.2268-.0467-.1972.0325z" fill="#af2b23" fill-opacity=".4078"/>
 <path d="m96.5559,207.218c.0987.1355.4908.2984.686.3962 .3446.2022.6297.2522 1.0466.2795 3.4425.2346 6.8418.3339 10.2926.1435 1.1485-.0544 2.4078-.5844 3.4785-.9331 .9196-.3036 2.5249-.3542 3.4839-.227 .3914.0305.7289.4006 1.1096.5073s.8718.2605 1.2521.2468c.2435.0209.5255-.0768.6076-.2106-.0822.0092-.1717-.0452-.2503-.064-.8269-.434-1.726-.6387-2.6603-.7632-1.0048-.1212-2.3264-.1347-3.3378.0493-.5928.1026-1.1819.3195-1.7323.5097-.7251.263-1.4661.5261-2.2524.5848-3.1337.2645-6.3644.1916-9.4895-.0575-.499-.038-.8382-.1665-1.2787-.3198-.2542-.0755-.4894-.1345-.6967-.2222-.102-.0339-.2622-.0047-.2589.0803z" fill="#b42b22" fill-opacity=".3765"/>
 <path d="m96.5393,207.259c.0646.1446.4606.2911.6271.3904 .3194.2092.5755.2585.9699.285 3.5793.2446 7.1125.3477 10.7003.1469 1.1194-.0583 2.3553-.6131 3.3957-.9718 .9018-.3131 2.5283-.3174 3.4728-.1696 .3558.0445.6366.4308.9811.5319s.817.2502 1.1702.2066c.2067-.0087.5686-.1512.6862-.3-.0481.0003-.0997-.0307-.1437-.0429-.8296-.4486-1.6986-.6569-2.6413-.8044-1.0021-.1501-2.3232-.1855-3.3281.0045-.567.1043-1.1317.3305-1.6574.5299-.7097.2762-1.4381.5535-2.2166.6166-3.2492.2798-6.6027.205-9.8477-.0546-.4803-.0376-.7949-.1699-1.2189-.3282-.2225-.0761-.4194-.1295-.6291-.1684-.104-.0146-.2976.0372-.3205.1281z" fill="#b82a22" fill-opacity=".3412"/>
 <path d="m96.8585,206.479c.7091-.0295 1.0295.4288 1.7419.4965 .7982.0801 1.6064.1399 2.4282.1831 .981.0542 1.9662.0862 2.9541.0845 1.6731.014 3.3516-.0695 4.9668-.2395 1.242-.1319 2.4645-1.0138 3.6865-1.2621 1.0303-.2183 2.3865-.1399 3.42.0672 .9993.2002 1.8576.4475 2.7271.9712 .9065.5529-.2481,1.2614-.8087,1.3955-.6939.1727-1.4654-.3002-2.1664-.4416-.7781-.1707-2.22-.3114-3.0023-.0212-1.0527.3985-2.3831.7792-3.5131.8568-1.0594.0702-2.0881.1176-3.0798.1419-1.0012.0282-1.9682.0344-2.8985.0153-1.054-.0085-2.0737-.0497-3.0444-.1081-.8324-.0473-1.6132-.1072-2.3513-.1696-.8266-.0657-1.7463-.2234-1.9125-1.1903-.0669-.3826.375-.7592.8524-.7796z" fill="#762e2e" fill-opacity=".9686"/>
 <path d="m96.8417,206.52c.6754-.0202.9996.4216 1.6832.4909 .7729.0869 1.5522.1462 2.3514.1886 1.1177.0642 2.2371.0998 3.3619.0879 1.6439.0102 3.2991-.0984 4.8842-.2782 1.2239-.1415 2.4678-.9771 3.6751-1.2047 .9949-.2043 2.2944-.1099 3.2919.0917 .9644.1949 1.8024.4371 2.6449.931 .8697.5233-.2051,1.1871-.7299,1.3062-.66.1638-1.3936-.2859-2.06-.4205-.7808-.1854-2.1926-.3297-2.9832-.0626-1.0501.3697-2.3802.7285-3.5035.812-1.0334.072-2.0377.1289-3.005.1623-.9857.0412-1.9403.0619-2.8626.047-1.1693.0067-2.3119-.0363-3.4024-.1052-.8141-.0467-1.5701-.1105-2.2918-.178-.7947-.0663-1.6764-.2186-1.8449-1.1365-.0688-.3633.3395-.7173.7907-.7319z" fill="#792e2e" fill-opacity=".9333"/>
 <path d="m96.8249,206.561c.6413-.0112.9697.4144 1.6245.4853 .7478.0937 1.498.1524 2.2747.1939 1.2545.0742 2.508.1137 3.7695.091 1.6149.0065 3.2467-.1268 4.8016-.3165 1.2059-.151 2.4711-.9406 3.6639-1.1472 .9594-.1906 2.2023-.0799 3.1634.1162 .9298.1897 1.7479.4266 2.5631.8908 .8327.4936-.1623,1.1125-.6514,1.217-.6258.1545-1.3217-.2719-1.9535-.3997-.7835-.2-2.1651-.3478-2.9642-.1037-1.0475.3408-2.377.6777-3.4936.7671-1.0076.0737-1.9875.1399-2.9303.1828-.9704.0542-1.9123.0892-2.8265.0786-1.285.0218-2.5504-.0229-3.7606-.1025-.7955-.0461-1.5271-.1138-2.2322-.1864-.7629-.0667-1.6065-.2135-1.7774-1.0826-.0708-.3439.3042-.6755.729-.6841z" fill="#7c2f2d" fill-opacity=".902"/>
 <path d="m96.8081,206.602c.6074-.0019.9397.4071 1.5659.4798 .7225.1004 1.4437.1586 2.198.1993 1.391.0842 2.7787.1273 4.177.0943 1.5856.0026 3.1943-.1555 4.7189-.3552 1.1881-.1606 2.4745-.9039 3.6527-1.0896 .9238-.1767 2.1101-.0499 3.035.1406 .8953.1844 1.6931.4163 2.4813.8504 .7959.4643-.1193,1.0384-.5727,1.1279-.592.1455-1.2499-.2578-1.8471-.3786-.7862-.2147-2.1377-.3662-2.9452-.145-1.0449.3118-2.3739.6269-3.484.7223-.9816.0755-1.937.1512-2.8552.2031-.9552.0673-1.8846.1165-2.7908.1103-1.4005.0369-2.7888-.0095-4.1186-.0996-.7769-.0457-1.484-.1173-2.1725-.1948-.7311-.0673-1.5368-.2086-1.71-1.0288-.0726-.3246.2688-.6337.6673-.6364z" fill="#7e2f2d" fill-opacity=".8667"/>
 <path d="m96.7913,206.643c.5734.0071.9097.3998 1.5072.4743 .6974.1072 1.3894.1648 2.1211.2046 1.528.0943 3.0498.1411 4.585.0976 1.5564-.0012 3.1418-.1841 4.6361-.3937 1.1701-.17 2.4779-.8672 3.6414-1.0321 .8884-.1629 2.0181-.0199 2.9068.165 .8605.1792 1.6383.4059 2.3992.8102 .7591.4346-.0762.964-.494,1.0385-.5579.1365-1.178-.2434-1.7407-.3576-.7889-.2292-2.1102-.3842-2.9262-.186-1.042.2829-2.3707.5761-3.4741.6772-.9558.0774-1.8868.1625-2.7806.2238-.9396.0801-1.8565.1436-2.7548.1417-1.5161.0523-3.0271.004-4.4767-.0968-.7583-.0452-1.4408-.1203-2.1129-.203-.6992-.0679-1.4669-.2036-1.6423-.9751-.0747-.3051.2334-.5915.6055-.5886z" fill="#822f2d" fill-opacity=".8353"/>
 <path d="m96.7745,206.684c.5396.0164.8799.3926 1.4485.4686 .6722.114 1.3351.171 2.0444.2099 1.6647.1043 3.3205.1549 4.9927.1009 1.5273-.0048 3.0894-.2126 4.5533-.4321 1.1524-.1796 2.4813-.8306 3.6302-.9746 .853-.1492 1.926.0101 2.7784.1894 .8259.174 1.5834.3956 2.3173.7701 .7222.405-.0333.8896-.4154.9493-.5239.1272-1.106-.2295-1.6341-.3367-.7916-.244-2.0828-.4025-2.9073-.2274-1.0394.2541-2.3674.5254-3.4644.6325l-2.7056.244c-.9244.0935-1.8285.1712-2.719.1737-1.6315.0673-3.2655.0173-4.8347-.0941-.7399-.0447-1.3978-.1238-2.0533-.2114-.6676-.0686-1.3972-.1988-1.5748-.9213-.0767-.2859.1979-.5497.5438-.5408z" fill="#852f2c" fill-opacity=".8039"/>
 <path d="m96.7576,206.726c.5057.0254.85.3852 1.3899.463 .6471.1209 1.2809.1772 1.9676.2152 1.8016.1144 3.5914.1689 5.4004.1043 1.4982-.0088 3.0369-.2412 4.4707-.4708 1.1344-.1892 2.4846-.7939 3.619-.9171 .8172-.1354 1.8339.0402 2.6499.2139 .7914.1687 1.5289.3853 2.2354.7298 .6854.3755.0098.8152-.3367.86-.4899.1184-1.0342-.215-1.5277-.3156-.7943-.2585-2.0553-.4206-2.8882-.2685-1.0368.2251-2.3644.4746-3.4547.5875-.9039.081-1.786.185-2.6307.2645-.9091.1065-1.8008.1985-2.6831.2052-1.7472.0826-3.5039.0308-5.1928-.0912-.7213-.0442-1.3548-.1269-1.9937-.2197-.6359-.0691-1.3274-.1938-1.5073-.8676-.0786-.2664.1626-.5078.482-.4929z" fill="#872f2b" fill-opacity=".7686"/>
 <path d="m96.7409,206.766c.4716.0348.8199.3782 1.3312.4575 .6217.1277 1.2266.1835 1.8909.2208 1.9383.1242 3.8621.1823 5.8079.1072 1.4691-.0124 2.9846-.2698 4.3882-.5091 1.1165-.1988 2.4879-.7573 3.6075-.8596 .7819-.1216 1.742.0702 2.5217.2383 .7566.1633 1.4741.3748 2.1534.6895 .6486.346.0528.741-.2579.7709-.4559.1092-.9624-.201-1.4213-.2947-.7971-.2732-2.0279-.4388-2.8692-.3098-1.0342.1964-2.3612.4238-3.4449.5428-.878.0827-1.7359.196-2.556.2849-.8936.1195-1.7727.2258-2.6471.2368-1.8626.0977-3.7422.0441-5.5509-.0885-.7028-.0437-1.3118-.1302-1.9341-.228-.6039-.0696-1.2575-.1888-1.4397-.8137-.0807-.247.1271-.4659.4203-.4453z" fill="#892d2a" fill-opacity=".7373"/>
 <path d="m96.7241,206.808c.4377.0438.7901.3708 1.2724.4519 .5967.1345 1.1724.1899 1.8142.226 2.075.1344 4.1332.1962 6.2159.1107 1.4397-.0163 2.932-.2983 4.3051-.5477 1.0987-.2083 2.4915-.7207 3.5965-.8022 .7464-.1077 1.6498.1003 2.3932.263 .7222.158 1.4194.3643 2.0716.6492 .6116.3164.0957.6665-.1793.6817-.422.1001-.8905-.187-1.3148-.2738-.7998-.2878-2.0005-.4571-2.8502-.351-1.0315.1674-2.3581.373-3.4352.4978-.8521.0845-1.6855.2073-2.481.3053-.8784.1326-1.7451.2531-2.6113.2686-1.9784.1128-3.9806.0575-5.9089-.0856-.6843-.0432-1.2688-.1335-1.8747-.2365-.5721-.0701-1.1875-.1838-1.3721-.76-.0824-.2275.0917-.4238.3586-.3974z" fill="#8e2d2a" fill-opacity=".7059"/>
 <path d="m96.7073,206.849c.4038.053.7601.3635 1.2138.4464 .5714.1412 1.1181.1959 1.7373.2313 2.2119.1445 4.4041.21 6.6234.114 1.4109-.02 2.8798-.3271 4.2227-.5864 1.0808-.2177 2.4948-.6838 3.5852-.7445 .7109-.0939 1.5577.1303 2.2649.2874 .6875.1527 1.3644.3538 1.9896.609 .5749.2866.1387.5922-.1007.5923-.3879.091-.8185-.1727-1.2082-.2528-.8026-.3023-1.9731-.4752-2.8313-.3922-1.0287.1386-2.3548.3223-3.4254.4531-.8261.0862-1.6352.2184-2.4062.3257-.8631.1456-1.7172.2803-2.5753.3001-2.0939.1281-4.2191.0709-6.2672-.0828-.6656-.0427-1.2255-.1369-1.8149-.2447-.5403-.0705-1.1177-.179-1.3046-.7062-.0843-.2082.0563-.382.2969-.3497z" fill="#912d29" fill-opacity=".6706"/>
 <path d="m96.6905,206.89c.37.0623.7301.3565 1.1552.4408 .5461.1481 1.0639.2025 1.6606.2367 2.3485.1545 4.6748.2238 7.0311.1174 1.3816-.0239 2.8272-.3556 4.1398-.625 1.063-.2272 2.4982-.6473 3.5741-.687 .6753-.0801 1.4655.1604 2.1364.3118 .6529.1476 1.3099.3436 1.9077.5688 .5381.2572.1818.5179-.0219.5032-.3541.0819-.7468-.1586-1.1019-.2319-.8053-.3169-1.9456-.4932-2.8123-.4334-1.0261.1097-2.3516.2715-3.4156.4081-.8003.0882-1.5848.2298-2.3313.3462-.8477.1587-1.6892.3078-2.5394.3318-2.2095.1431-4.4576.0843-6.6252-.08-.6471-.0421-1.1826-.1402-1.7554-.2531-.5085-.0712-1.048-.174-1.2371-.6524-.0864-.1888.0211-.3402.2352-.302z" fill="#942d29" fill-opacity=".6392"/>
 <path d="m96.6737,206.931c.336.0715.7002.3491 1.0965.4351 .5209.1548 1.0096.2086 1.5839.2421 2.4852.1646 4.9456.2376 7.4387.1206 1.3526-.0277 2.7748-.3842 4.0572-.6635 1.045-.2366 2.5015-.6106 3.5628-.6294 .6398-.0662 1.3734.1903 2.0082.3362 .6182.1422 1.255.3332 1.8257.5284 .5013.2278.2246.4436.0567.414-.3201.073-.6747-.1442-.9955-.2108-.8078-.3316-1.9181-.5115-2.7931-.4746-1.0235.0808-2.3486.2208-3.4062.3633-.7741.0899-1.5342.241-2.2563.3667-.8324.1716-1.6612.3349-2.5036.3633-2.3249.1583-4.6957.0978-6.9831-.0772-.6286-.0415-1.1396-.1435-1.6958-.2613-.4768-.0717-.9782-.1692-1.1695-.5987-.0884-.1696-.0144-.2983.1734-.2542z" fill="#972d29" fill-opacity=".6039"/>
 <path d="m96.6569,206.972c.3021.0805.6702.3419 1.0379.4296 .4958.1616.9552.2147 1.507.2475 2.622.1745 5.2167.2513 7.8466.1238 1.3232-.0316 2.7222-.4128 3.9745-.7021 1.027-.2462 2.5047-.5738 3.5515-.5719 .6043-.0524 1.2814.2204 1.8797.3606 .5835.137 1.2003.323 1.7438.4884 .4645.198.2677.3691.1354.3247-.286.0637-.6029-.1302-.8891-.1899-.8105-.3462-1.8906-.5296-2.7741-.5158-1.0207.0518-2.3454.1699-3.3962.3184-.7485.0917-1.4841.2521-2.1816.3869-.817.1849-1.6334.3624-2.4677.3952-2.4405.1734-4.9342.1112-7.3412-.0744-.6102-.0411-1.0965-.1468-1.6363-.2699-.4449-.072-.9082-.164-1.1019-.5448-.0902-.1501-.0497-.2562.1117-.2063z" fill="#9c2c27" fill-opacity=".5725"/>
 <path d="m96.6401,207.013c.2683.0898.6402.3347.9792.4241 .4706.1684.9011.221 1.4303.2528 2.7587.1846 5.4875.265 8.2542.1271 1.2942-.0354 2.67-.4414 3.8918-.7404 1.0092-.2559 2.5083-.5373 3.5404-.5145 .5688-.0386 1.1892.2504 1.7513.385 .5489.1318 1.1455.3124 1.6619.448 .4275.1687.3107.2949.2141.2357-.2522.0545-.531-.1162-.7825-.1689-.8134-.361-1.8633-.5479-2.7553-.5572-1.0181.0231-2.3423.1192-3.3865.2735-.7224.0936-1.4337.2635-2.1067.4075-.8016.1979-1.6055.3896-2.4319.4268-2.5559.1887-5.1724.1245-7.6992-.0716-.5916-.0407-1.0535-.1501-1.5766-.2782-.4132-.0726-.8385-.1591-1.0344-.4911-.0923-.1307-.0852-.2143.0499-.1586z" fill="#9e2c27" fill-opacity=".5412"/>
 <path d="m96.6232,207.054c.2343.0988.6105.3275.9206.4185 .4454.1751.8468.2272 1.3535.2581 2.8956.1945 5.7584.2788 8.6619.1304 1.265-.0392 2.6176-.4699 3.8092-.779 .9914-.2654 2.5115-.5007 3.529-.457 .5333-.0248 1.0972.2804 1.623.4095 .5143.1265 1.0909.3022 1.58.4077 .3907.1392.3535.2207.2927.1464-.2181.0455-.4591-.1018-.6761-.1479-.816-.3755-1.8358-.5662-2.7362-.5983-1.0154-.0058-2.339.0683-3.3768.2287-.6964.0953-1.3833.2747-2.0316.4279-.7865.2109-1.5778.4169-2.396.4584-2.6717.2039-5.4109.1379-8.0575-.0687-.573-.0402-1.0102-.1534-1.5169-.2865-.3814-.0732-.7687-.1544-.9669-.4374-.0942-.1113-.1206-.1724-.0119-.1108z" fill="#a22c26" fill-opacity=".5059"/>
 <path d="m96.6064,207.095c.2005.108.5806.3201.8619.4128 .4202.182.7925.2335 1.2769.2635 3.0322.2047 6.0291.2926 9.0696.1337 1.2358-.0429 2.565-.4986 3.7264-.8175 .9734-.2749 2.5148-.4641 3.5177-.3995 .4979-.011 1.0051.3104 1.4946.434 .4797.1212 1.0361.2916 1.4981.3675 .3539.1096.3966.1462.3714.057-.1841.0365-.3872-.0876-.5695-.1269-.8188-.3901-1.8085-.5843-2.7174-.6394-1.0128-.0348-2.3358.0174-3.3669.1837-.6706.0972-1.333.2858-1.9569.4485-.771.2239-1.5498.4442-2.3601.4899-2.7872.219-5.6493.1513-8.4154-.066-.5545-.0396-.9673-.1566-1.4575-.2947-.3496-.0738-.6989-.1494-.8993-.3836-.0962-.0919-.1559-.1305-.0736-.063z" fill="#a52c26" fill-opacity=".4745"/>
 <path d="m96.5897,207.136c.1664.1173.5505.3129.8032.4074 .3949.1887.7383.2397 1.2001.2689 3.1689.2145 6.2999.3063 9.4772.1369 1.2067-.0467 2.5127-.5273 3.6438-.856 .9554-.2845 2.5181-.4274 3.5064-.342 .4624.0027.9131.3405 1.3664.4584 .4449.116.9813.2813 1.416.3273 .317.0799.4395.0719.4502-.0322-.1501.0274-.3155-.0734-.4632-.1059-.8215-.4048-1.781-.6024-2.6983-.6807-1.0101-.0638-2.3327-.0333-3.3573.1389-.6446.0989-1.2827.297-1.8819.4687-.7559.237-1.522.4716-2.3243.5218-2.9028.2341-5.8876.1646-8.7735-.0633-.5359-.039-.9243-.1598-1.3977-.303-.318-.0743-.6291-.1445-.8318-.3299-.0981-.0725-.1915-.0886-.1353-.0153z" fill="#ab2c23" fill-opacity=".4431"/>
 <path d="m96.5727,207.177c.1327.1263.5208.3057.7446.4018 .3698.1954.6841.2459 1.1234.2742 3.3059.2245 6.5708.3201 9.8849.1403 1.1777-.0506 2.4603-.5559 3.5611-.8947 .9376-.294 2.5217-.3907 3.4954-.2845 .4266.0166.8208.3706 1.2378.4829 .4103.1108.9265.2708 1.3341.287 .2803.0504.4826-.0024.5289-.1213-.1161.0184-.2435-.0593-.3567-.0851-.8242-.4193-1.7535-.6205-2.6794-.7219-1.0073-.0926-2.3295-.084-3.3475.0941-.6188.1007-1.2324.3083-1.807.4892-.7405.2502-1.4941.499-2.2885.5534-3.0181.2493-6.1261.178-9.1314-.0604-.5174-.0386-.8812-.1632-1.3383-.3115-.2861-.0748-.5592-.1394-.7642-.276-.1001-.0531-.2268-.0467-.1972.0325z" fill="#af2b23" fill-opacity=".4078"/>
 <path d="m96.5559,207.218c.0987.1355.4908.2984.686.3962 .3446.2022.6297.2522 1.0466.2795 3.4425.2346 6.8418.3339 10.2926.1435 1.1485-.0544 2.4078-.5844 3.4785-.9331 .9196-.3036 2.5249-.3542 3.4839-.227 .3914.0305.7289.4006 1.1096.5073s.8718.2605 1.2521.2468c.2435.0209.5255-.0768.6076-.2106-.0822.0092-.1717-.0452-.2503-.064-.8269-.434-1.726-.6387-2.6603-.7632-1.0048-.1212-2.3264-.1347-3.3378.0493-.5928.1026-1.1819.3195-1.7323.5097-.7251.263-1.4661.5261-2.2524.5848-3.1337.2645-6.3644.1916-9.4895-.0575-.499-.038-.8382-.1665-1.2787-.3198-.2542-.0755-.4894-.1345-.6967-.2222-.102-.0339-.2622-.0047-.2589.0803z" fill="#b42b22" fill-opacity=".3765"/>
 <path d="m96.5393,207.259c.0646.1446.4606.2911.6271.3904 .3194.2092.5755.2585.9699.285 3.5793.2446 7.1125.3477 10.7003.1469 1.1194-.0583 2.3553-.6131 3.3957-.9718 .9018-.3131 2.5283-.3174 3.4728-.1696 .3558.0445.6366.4308.9811.5319s.817.2502 1.1702.2066c.2067-.0087.5686-.1512.6862-.3-.0481.0003-.0997-.0307-.1437-.0429-.8296-.4486-1.6986-.6569-2.6413-.8044-1.0021-.1501-2.3232-.1855-3.3281.0045-.567.1043-1.1317.3305-1.6574.5299-.7097.2762-1.4381.5535-2.2166.6166-3.2492.2798-6.6027.205-9.8477-.0546-.4803-.0376-.7949-.1699-1.2189-.3282-.2225-.0761-.4194-.1295-.6291-.1684-.104-.0146-.2976.0372-.3205.1281z" fill="#b82a22" fill-opacity=".3412"/>
 <path d="m96.5223,207.3c.0309.1537.4309.2839.5686.385 .2942.2158.5211.2649.8932.2903 3.7159.2546 7.3834.3615 11.1079.1501 1.0901-.0619 2.3029-.6417 3.3131-1.0103 .8838-.3225 2.5316-.2808 3.4614-.1119 .3204.0581.5446.4606.8528.5562s.7623.2397 1.0884.1663c.1697-.0382.6115-.2255.7648-.389l-.0373-.0221c-.8323-.4633-1.6711-.6752-2.6223-.8456-.9993-.1791-2.32-.2364-3.3183-.0405-.541.1062-1.0813.3419-1.5825.5507-.6944.289-1.4104.5806-2.1807.648-3.3649.2949-6.8411.2184-10.2057-.0519-.4619-.037-.752-.1732-1.1595-.3365-.1907-.0766-.3497-.1246-.5616-.1146-.1058.0048-.333.0791-.3823.1758z" fill="#bb2921" fill-opacity=".3098"/>
 <path d="m109.397,203.377c-.3228,1.2466-.345,2.0926-.6678,3.3392-.2004.1894-.4663.1623-.6667.0275 .3228-1.2912.3772-2.0068.7-3.298 .2004.0223.4341-.0909.6345-.0687zm-1.3085,0c-.3227,1.2466-.345,2.0926-.6678,3.3392-.2003.1894-.4663.1623-.6666.0275 .3228-1.2912.3772-2.0068.6999-3.298 .2004.0223.4342-.0909.6345-.0687zm-1.0012,0c-.3228,1.2466-.345,2.0926-.6678,3.3392-.2004.1894-.4663.1623-.6667.0275 .3228-1.2912.3773-2.0068.7-3.298 .2004.0223.4341-.0909.6345-.0687zm-1.215-.0326c-.257,1.2619-.2349,2.1078-.4919,3.3696-.1901.1997-.4571.1865-.6643.0624 .2547-1.3063.2716-2.0238.5262-3.3301 .2013.0118.4288-.1136.63-.1019zm-1.4875.0055c-.0564,1.2865.1008,2.0443.0444,3.3308-.1566.227-.4223.2557-.6464.1656 .0472-1.3301-.0484-2.0414-.0012-3.3714 .2006-.0199.4026-.1051.6032-.125zm-1.7786.171c.1635,1.2773.0662,2.0136.2297,3.2909 .1749.2131.4422.2196.6579.1111-.1579-1.3215-.1053-2.1217-.2633-3.4431-.2015-.0031-.4228.0442-.6243.0411zm-1.2192-.068c.257,1.2618.235,2.1078.4921,3.3696 .1902.1997.4572.1864.6643.0624-.2548-1.3063-.2716-2.0239-.5264-3.3301-.2012.0117-.4288-.1136-.63-.1019zm-1.3529-.012c.3227,1.2466.345,2.0925.6678,3.3392 .2003.1894.4663.1622.6666.0275-.3228-1.2912-.3772-2.0069-.7-3.298-.2003.0223-.4341-.091-.6344-.0687zm-1.1013-.1333c.3014,1.2519.3093,2.0981.6109,3.3501 .197.1928.4634.1701.666.0388-.3007-1.2964-.343-2.013-.6437-3.3094-.2007.0189-.4326-.0983-.6332-.0795zm-1.1249.0928c.3228,1.2466.3451,2.0925.6679,3.3392 .2003.1894.4662.1622.6666.0275-.3228-1.2912-.3772-2.0069-.7-3.298-.2004.0223-.4341-.091-.6345-.0687z" fill="#23201d"/>
 <path d="m86.922 203.17a1.5861 1.6028 0 1 0 -3.1722 0 1.5861 1.6028 0 1 0 3.1722 0" fill="#d0acc6"/>
 <path d="m93.901 203.6a1.5861 1.6028 0 1 0 -3.1722 0 1.5861 1.6028 0 1 0 3.1722 0" fill="#d0834e"/>
 <path d="m95.838 206.64a1.5861 1.6028 0 1 0 -3.1722 0 1.5861 1.6028 0 1 0 3.1722 0" fill="#d8a8c3"/>
 <path d="m92.465 206.77a1.5861 1.6028 0 1 0 -3.1722 0 1.5861 1.6028 0 1 0 3.1722 0" fill="#da999d"/>
 <path d="m86.721 206.84a1.5861 1.6028 0 1 0 -3.1722 0 1.5861 1.6028 0 1 0 3.1722 0" fill="#90c3f0"/>
 <path d="m89.86 204.8a1.5861 1.6028 0 1 0 -3.1722 0 1.5861 1.6028 0 1 0 3.1722 0" fill="#9cadbc"/>
 <path d="m106.222,218.093c.7744,0 1.4025.6131 1.4025,1.3691s-.6281,1.369-1.4025,1.369-1.4025-.6131-1.4025-1.369 .6281-1.3691 1.4025-1.3691zm2.9719,0c.7744,0 1.4025.6131 1.4025,1.3691s-.6281,1.369-1.4025,1.369-1.4025-.6131-1.4025-1.369 .6281-1.3691 1.4025-1.3691zm2.9719,0c.7744,0 1.4025.6131 1.4025,1.3691s-.6281,1.369-1.4025,1.369-1.4025-.6131-1.4025-1.369 .628-1.3691 1.4025-1.3691zm2.9719,0c.7744,0 1.4024.6131 1.4024,1.3691s-.628,1.369-1.4024,1.369-1.4025-.6131-1.4025-1.369 .628-1.3691 1.4025-1.3691zm2.9719,0c.7744,0 1.4024.6131 1.4024,1.3691s-.628,1.369-1.4024,1.369-1.4025-.6131-1.4025-1.369 .628-1.3691 1.4025-1.3691zm-1.5027-2.9051c.7745,0 1.4025.6131 1.4025,1.369s-.628,1.3691-1.4025,1.3691-1.4024-.6131-1.4024-1.3691 .628-1.369 1.4024-1.369z" fill="#aadde1"/>
 <path d="m97.0346,217.726c1.6989,0 4.2929-.9178 4.2929,1.0592h-4.5413c0-.4021-.2207-1.0592.2484-1.0592zm-.2484,1.3246h4.5413v1.7803h-4.5413v-1.7803z" fill="#23201d"/>
 <path d="m35.778 235.3c2.1376-11.846 4.2753-25.028 6.413-36.874 4.2753 11.134 8.5506 23.603 12.826 34.737l18.972-1.3361c-5.7005-17.636-10.416-35.138-16.116-52.773 1.5967-0.5106 2.42-1.0985 3.8052-1.6654-1.2689-1.2911-2.304-2.9162-3.5729-4.2074-0.5566-0.6901-1.3468-1.0463-1.9034-1.7364 6.0567-8.6585 10.568-16.459 14.982-25.124 2.152-0.6859 4.6241-0.7365 6.4561-2.0575 4.0949-2.9527 1.6567-7.4568-1.1353-11.487l18.461-10.237c-0.234-2.8807-1.2361-5.3133-3.6073-6.9473l-16.3 4.1417c-0.49 3.34-0.9589 6.3484-2.6721 9.2854-0.4663 0.7993-1.4523 0.6591-2.171 0.0334-3.2616-2.8395-4.7694-7.1335-6.5467-12.058-5.0149 0.3886-9.9962 1.3711-11.59 4.7764-5.3685 11.469-5.6512 23.683-10.688 36.841-0.628 1.6406-0.8545 3.7604-3.2397 5.7446-4.2743 3.5557-6.6469 7.2594-10.254 11.49 0.464 0.536 1.1283 0.5377 1.5923 1.0736-7.286 15.16-10.259 31.728-12.013 47.959l-1.0688 11.757 19.372-1.3361z" fill="#23201d"/>
 <path d="m34.9206,167.405c4.8536,5.9014 11.202,6.6349 18.777,4.8177 1.0821-.2596 1.6006-.8002 2.7601-1.1454l2.5484,1.1021c-4.7271,1.8387-9.4471,3.7225-14.6257,2.6714-.0891.8682.0111,2.894 1.1687,4.2074-.3339.7346-.768-.1113-1.9034-.5343-.1335-1.0908-.5008-2.7159-.6344-3.8067-.4007,2.1705-1.1019,4.2074-1.8366,6.0106-.4452-.1336-1.2244-.3339-1.6696-.4675 1.024-1.2355 1.7475-3.5062 2.0036-5.6766-3.0023-1.1889-5.7087-3.2889-7.8193-5.815l1.2312-1.3637z" fill="#c2a24d"/>
 <path d="m83.3406,159.013 24.8502-25.2511c2.5606.7234 5.0222,2.0948 7.6819,2.17 1.6819.0475 3.4134-.7456 4.7083-1.8199 .8685-.7205 1.4837-2.0309 1.2689-3.1388-.2695-1.39-1.7335-2.5206-2.5795-3.6559-.5151,1.2126-1.5242,2.7443-2.6631,2.8545-1.5459.1495-2.9288-.0292-3.3392-1.8533-.2054-.9131-.1965-2.1596.1986-3.0278-1.5137.8905-3.4073,1.6402-4.7733,2.744-.8762.708-1.3802,1.7809-2.0703,2.6713l-23.1741,21.5713c-3.8512-4.5191-9.5723-12.5109-13.4236-17.0299-1.1575,1.9367-3.5172,3.3392-4.942,4.2073 5.2398,5.8961 13.0174,13.6622 18.2572,19.5583z" fill="#fdcd8e"/>
 <path d="m126.294,100.458c4.1531,1.2681 6.944,4.7752 7.2111,8.5577l13.3219,4.795-2.2587,6.2753-13.2784-4.7793c-2.1259,2.3004-5.4919,3.4366-8.9304,2.8539l-3.0857,9.162-.0038-.005c-.5151,1.2126-1.5242,2.7443-2.6631,2.8545-1.5459.1495-2.9288-.0292-3.3392-1.8533-.2054-.9131-.1965-2.1596.1986-3.0278l-.0109.0064 3.6778-9.5688c-2.7703-2.3777-4.068-6.0355-3.0136-9.4888 1.4651-4.7981 6.917-7.3872 12.1744-5.7818z" fill="#bb2921"/>
 <path d="m118.424,123.607c.2785,0 .5043.2553.5043.5702s-.2258.5702-.5043.5702-.5044-.2554-.5044-.5702 .2259-.5702.5044-.5702z" fill="#da999d"/>
 <path d="m119.104,121.414c.2785,0 .5044.2554.5044.5702s-.2259.5702-.5044.5702-.5044-.2553-.5044-.5702 .2259-.5702.5044-.5702z" fill="#da999d"/>
 <path d="m119.784,119.221c.2785,0 .5044.2554.5044.5702s-.2259.5702-.5044.5702-.5044-.2554-.5044-.5702 .2258-.5702.5044-.5702z" fill="#762e2c"/>
 <path d="m132.522,105.554c1.6143.0566 3.2358-.0188 4.8466.1724 5.5596.66 11.0894,2.0131 16.6705,2.362 3.4596.2163 7.7115-1.1858 11.0963-.4774 .3638.0761.5638.2314.8309.386 2.0677,1.1967 3.2833,2.7652 4.9611,4.5224 .2313.2423.253.9159-.6093.4492s-3.1649-1.27-4.234-1.2293c-.6665.0254-1.5346.7563-.9686,1.5253s4.1316,1.6233 4.9762,2.7494-5.8778-.612-5.8778-.612c-1.3655-.1188-2.9543-.0551-4.5969-.6787s-4.2546-2.5204-6.8088-2.9464c-1.9526-.3256-9.2639-1.1398-16.0852-1.6035l-3.2178-1.1582c-.0849-1.2027-.4253-2.3773-.9832-3.4612z" fill="#fdcd8e"/>
 <path d="m94.8167,121.344 19.1693-9.3367 .1788-.7066c-.5128-1.6189-.5627-3.3644-.0448-5.0606 .1045-.3419.2298-.6723.3732-.9911l-22.7923,10.5936c1.8082,1.3849 2.741,3.2804 3.1158,5.5014z" fill="#fdcd8e"/>
 <path d="m76.4364,114.738c-4.0893-2.9114-5.4047-7.3259-5.7769-11.7249-.2521-2.9798-.0111-5.5289.579-8.8172 .2474-1.3782.4681-2.9876 1.514-3.9185 2.0936-1.8633 5.4181-2.0176 7.3918-4.0076 1.7949-1.8098 3.3243-4.1264 3.3841-6.8574 11.2176,1.8294 16.3012,8.5013 13.982,21.0175-.2971,1.5139-1.1877,2.7311-2.6717,3.6514-.8509,2.7509-2.7317,5.0981-4.9872,7.0355-4.7087,4.0446-10.9616,5.368-13.4151,3.6212z" fill="#f5cf9d"/>
 <path d="m70.0808,106.485-8.3685-3.9729c0-1.3952.0188-2.8253.0188-4.2205-.3154,0-1.2802.4419-1.7324.3898-.2713-.0312-.0593-.5677-.2485-.5677 .564-.386 1.4171-.594 1.9811-.9799-.3265-.2375-.0912-.7854-.4904-.8459-.6516-.0987-2.2371.6516-2.7375.2227-1.3815-1.1841-1.1959-3.406-2.2052-4.9199 1.232-.4419 2.5085-.2168 3.7405-.6586 1.499-.5377 2.8211-.5304 3.63-1.9023 4.0067-6.7956 7.3294-12.8279 17.366-16.2531 8.8857.3179 16.206,2.1501 20.5723,7.9708 6.2198,8.2916 4.6411,19.1518 3.3674,28.9251l-4.18,1.9428c-2.642.2169-5.2047.4397-6.1338,1.8161-.1947.2883 0,.598.2653.9115l-1.9484.9056c-1.4421-.1884-2.7621-.7443-4.0004-1.1643-.7502-.2544-1.4905-.5212-2.2232-.7974 1.0673-.6034 2.1161-1.3278 3.0976-2.1709 2.2555-1.9374 4.1363-4.2846 4.9872-7.0355 1.484-.9203 2.3746-2.1375 2.6717-3.6514 2.3192-12.5162-2.7644-19.1881-13.982-21.0175-.0598,2.731-1.5892,5.0476-3.3841,6.8574-1.9737,1.99-5.2982,2.1443-7.3918,4.0076-1.0459.9309-1.2666,2.5403-1.514,3.9185-.5901,3.2883-.8311,5.8374-.579,8.8172 .1109,1.3109.3057,2.6232.6326,3.8968-.4011-.1447-.8047-.2862-1.2113-.4241z" fill="#f7c032"/>
 <path d="m69.9269,106.412c-1.259,2.2794-6.3319,10.5882-6.2595,10.5826 1.7773,4.9242 3.2851,9.2182 6.5467,12.0577 .7187.6257 1.7047.7659 2.171-.0334 1.702-2.9178 2.1855-5.9715 2.6721-9.2854l-.5344-.2672c-1.5227-2.2563-.9705-4.1463.5266-5.8695-1.9881-1.8863-3.122-4.2138-3.7571-6.6877-.4011-.1447-.8049-.2862-1.2115-.4241l-.1539-.073z" fill="#fdcd8e"/>
 <path d="m76.0942,107.003c1.6458.3319 2.7095.1055 3.7307.6251 .6921.3521 1.1316.6122 1.8754.9044 .9447.371 1.497,1.4026 2.7174,2.343-2.1079.4183-3.4203.5084-4.8083-.1188-1.2247-.5534-2.5846-1.653-3.5152-3.7537z" fill="#fa6b65"/>
 <path d="m74.0078,91.1682c3.016.4975 5.3904,1.8647 7.591,4.1265-4.5013.4033-5.9874-.485-7.591-4.1265z" fill="#f2f0e1"/>
 <path d="m88.1273,98.8918c3.0539-.1223 5.8511.8349 8.5043,2.3975-4.322,1.2084-6.1858.561-8.5043-2.3975z" fill="#f2f0e1"/>
 <path transform="matrix(.34576 .10861 -.10861 .34576 79.34 94.322)" d="m3.339 0a3.339 3.0555 0 1 0 -6.678 0 3.339 3.0555 0 1 0 6.678 0" fill="#8e7f66"/>
 <path d="m81.7194,94.8559c.1162.3606-.3015.4526-.4538.2643-.7406-.9155-1.8997-1.6067-2.897-2.2326-1.6012-1.0048-3.0628-.9757-4.3355-2.0944-.4051-.3561-.8115-1.0582-.9585-1.4781 .6036.319 1.1536.6492 1.8185,1.0452 1.008.6002 2.067.783 3.0697,1.3045 2.2115,1.1504 2.7827,2.0687 3.7566,3.1911z" fill="#503723"/>
 <path transform="matrix(.34576 .10861 -.10861 .34576 93.322 100.75)" d="m3.339 0a3.339 3.0555 0 1 0 -6.678 0 3.339 3.0555 0 1 0 6.678 0" fill="#8e7f66"/>
 <path d="m87.0169,97.9508c-.3712.1797-.1294.5777.1334.5559 1.2775-.1058 2.6934.2864 3.9361.6004 1.9953.5043 3.0718,1.6764 4.9095,1.8365 .5849.0509 1.4431-.1575 1.8842-.3576-.7051-.2351-1.3788-.4195-2.1904-.6449-1.2306-.3418-2.171-1.0376-3.3357-1.4344-2.5688-.875-3.7211-.6338-5.3371-.5559z" fill="#503723"/>
 <path d="m79.442,86.8679c2.9027,1.5191 4.1454,2.8755 4.4096,6.1033-1.8136-2.9228-4.0757-4.3748-6.7576-4.8872 .8344-.3362 1.6438-.705 2.348-1.2161zm18.6177,8.0505c-4.0579-1.3049-7.2785-2.1246-10.753.9007 3.6622-1.1229 7.9881-.5034 10.6554,1.3138 .0646-.7635.0972-1.5017.0976-2.2145z" fill="#fdbf6a"/>
 <path d="m83.4711,105.904c.5405.0525.938.0269.9413-.5283 .0275-4.6979-.8109-7.101 2.471-10.8708-3.4377,2.7713-2.9325,5.479-3.4133,9.6141-.0888.7633-.5805.7219-1.3288.8592-.6891.1265-1.2538-.0831-1.4468.0277-.6304.3624 1.4959.7736 2.7766.8981z" fill="#fdbf6a"/>
 <path d="m184.04,221.056c-1.9101-3.2544-6.8236-11.888-6.8236-11.888l-3.8069-14.4183c.2382-.84.4805-1.6776.7278-2.5122 .2104-.7102.7929-1.3116 1.2018-1.8695 .7579-1.0339 1.9635-1.8335 3.0861-2.6746l.1721.0574 4.1306,21.0003 6.1018,12.1824c-1.5956.0304-3.1921.0704-4.7897.1225z" fill="#fdcd8e"/>
 <path d="m170.76 221.72c-2.2541-3.9115-4.2124-7.6182-6.5906-11.616-1.4249-8.5495-3.0055-17.788-4.4304-26.338-2.36 0.0525-4.631 0.6164-6.9464 1.0914 2.3748 8.5495 4.3271 17.722 6.702 26.271l6.2765 10.947c1.6638-0.1277 3.3269-0.2469 4.9889-0.3564z" fill="#fdcd8e"/>
 <path d="m151.36 180.1c-3.4758 0.8947-7.9569 1.6004-9.8826 3.8618-7.5634 8.8821-4.298 25.587 3.5841 27.518l7.0928-1.0507c0.7599-8.4986 2.2431-17.157 0.5662-25.488-0.3524-1.7507-0.8473-3.3234-1.3605-4.8413z" fill="#c70400"/>
 <path d="m149.448,218.741-1.8685-7.6299 4.5803-.6785c-.0527.5885-.1019,1.1763-.1463,1.7632-.1502,1.9847-.4289,4.3707-1.8257,5.7887l-.7398.7565z" fill="#c6c4c9"/>
 <path d="m159.583,157.604c-.0297,3.2357.0541,6.6748.0244,9.9106 2.3305,4.215 5.3295,7.25 8.3024,9.9488 1.1448,1.0393 2.2745,1.1389 2.4265-.6231 .235-2.7235-.185-5.5066.1116-8.1933-3.8333-2.0114-4.8174-6.2805-4.2307-10.5314-2.0483-1.4546-4.4969-3.2427-6.5452-4.6973l-.089,4.1857z" fill="#fdcd8e"/>
 <path d="m145.303,224.032c1.2013-2.2105 2.7247-3.8545 4.8848-6.0474 1.3968-1.418 1.6755-3.804 1.8257-5.7887 .6856-9.061 2.5055-18.3433.7125-27.2515-.8188-4.0676-2.4068-7.1745-3.2061-10.865-.6056-2.7962 1.0395-5.5873 4.118-6.6131 2.1868-.057 4.1424-.0314 5.9699.0482 2.3175,4.116 5.3776,7.2935 8.3024,9.9488 1.1448,1.0393 2.2745,1.1389 2.4265-.6231 .235-2.7235-.185-5.5066.1116-8.1933-.1339-.0702-.264-.1436-.3911-.2193l.053.0055c1.0105.1043 2.8285-.0833 3.7817,1.1472 1.7197,2.2199 1.5033,4.3243 2.8715,6.8108 2.082,3.7839 5.4432,4.2323 4.3177,8.1682-.7281,2.5457-4.1827,3.6808-5.7421,5.8082-.4089.5579-.9914,1.1593-1.2018,1.8695-2.3555,7.9503-4.2646,16.1633-6.3116,24.27-1.1712-2.1019-2.3505-4.2093-3.6565-6.4044-1.4249-8.5495-3.0055-17.7884-4.4304-26.3379-2.36.0525-4.631.6164-6.9464,1.0914 2.3748,8.5495 4.3271,17.7216 6.702,26.2711l6.2765,10.9474c-6.8102.5231-13.6342,1.1912-20.4678,1.9574z" fill="#23201d"/>
 <path d="m170.202,158.29c4.717-2.9231 8.2863-14.3755 5.1468-22.152-5.7441-14.228-16.3466-13.6259-22.6876-9.6023 .6553,2.2543-.5521,5.2126.8719,16.9559 .4673,3.8533 1.8168,6.8893 3.2002,9.0162 2.7703,4.2591 7.1774,6.2673 12.7855,5.9794 .3024-.0155.4248-.037.6832-.1972z" fill="#f5cf9d"/>
 <path d="m149.56 159.21c4.0203-0.5753 7.8234-0.6947 11.844-1.8038-0.7273-0.3116-1.2929-1.1922-1.9301-1.8151-0.1389-0.1129-0.2755-0.2291-0.41-0.3485l-0.0041-0.0029 7e-4 -1e-4c-0.8712-0.7736-1.6503-1.6833-2.3305-2.7291-1.3834-2.1269-2.7329-5.1629-3.2002-9.0162-1.424-11.743-0.2166-14.702-0.8719-16.956 6.341-4.0236 16.944-4.6257 22.688 9.6023 2.0644 5.1135 1.2277 11.816-0.9282 16.638l0.3911-0.0699c5.8325-2.1491 11.69-4.8811 17.878-10.354-8.6228-1.6323-12.799-20.383-24.396-23.71-7.6358-2.191-14.616-0.9554-21.803 4.6751-5.5381 11.043-6.0586 23.422 3.072 35.89z" fill="#19150d"/>
 <path d="m166.587,111.768c.9508.2547 2.2048.6453 3.4634,1.067 .0998.047.1899.0921.268.1344 .2703.1462.4536.1805.571.1511 1.6765.5791 3.2409,1.172 3.9648,1.5226 .5212.2524.4318.2968.3335.8344-.1876,1.0269-.8204,3.1391-1.1248,4.4854-.4896.1223-.2006-.2671-.6902-.2671 .2224-1.159.4934-2.2489.7362-3.3787 .149-.6934.0803-.6874-.4995-.9541-.2565,1.1136-.7583,2.8293-1.0191,3.9828-.4896.1223-.2006-.2671-.6902-.2671 .2224-1.1591.4935-2.2489.7362-3.3787 .156-.7256.0735-.6853-.5838-.9932-.2522,1.1115-.7665,2.8652-1.0316,4.0379-.4896.1223-.2006-.2671-.6902-.2671 .2224-1.159.4934-2.2488.7362-3.3786 .1595-.7419.0698-.6832-.6288-1.0144l-.0086-.0041c-.1112.4987-.2794,1.137-.4554,1.797-.1789-.1867-.4287-.3657-.722-.5382l.1786-.808c.1594-.7419.0697-.6831-.6288-1.0144l-.0086-.0041c-.0891.3998-.2149.8891-.3519,1.4073-.2532-.1182-.5171-.2334-.7812-.3458 .0454-.2027.0903-.406.1343-.6107 .144-.67.0847-.687-.4426-.928l-.203-.0536c-.0813.3602-.1909.7898-.3109,1.2461-.2809-.119-.5476-.235-.7856-.3484l.1059-.4837c.0784-.3649.0965-.5361.0116-.6553l-.6968-.1548c-.0598.2537-.1308.5355-.208.8324-.0616-.0514-.112-.1023-.1493-.1529-.566-.769.3021-1.4999.9686-1.5253 .1466-.0056.3165.0048.5026.0279zm3.2532,4.6112c-.1711.6425-.3379,1.2774-.4555,1.7979-.4896.1223-.2006-.2672-.6902-.2672 .1009-.5261.2119-1.0379.3257-1.5457 .3347.0321.6185.0405.82.015zm-1.7497-.1395c-.1296.4922-.2507.9655-.342,1.3697-.4897.1223-.2006-.2671-.6902-.2671 .0807-.4208.1679-.8325.2578-1.2402 .2622.0501.523.0968.7744.1376zm-1.6995-.3261c-.1054.4048-.2024.7905-.2787,1.1281-.4897.1223-.2006-.2671-.6902-.2671 .0668-.3483.138-.6903.2115-1.029l.7574.168zm-1.6829-.3874c-.0873.3388-.1671.6608-.2321.9479-.4896.1223-.2005-.2672-.6901-.2672 .0534-.2783.1096-.5527.1676-.8246l.2607.0205 .4939.1234zm-1.7619-.2035c-.0643.2542-.1232.4961-.1732.7173-.4896.1223-.2005-.2672-.6901-.2672 .0325-.1696.0661-.3377.1005-.5047l.7628.0546zm-1.7661-.1813c-.0399.1623-.0769.318-.11.4645-.4897.1223-.2006-.2672-.6902-.2672 .0226-.118.0458-.2353.0694-.352 .2457.063.4895.1135.7308.1547zm-1.6943-.4692c-.0432.175-.0832.3425-.1187.4996-.4897.1223-.2006-.2672-.6902-.2672 .0356-.1856.0725-.3695.1103-.5521 .2471.1226.4806.2311.6986.3197zm-1.612-.7956c-.0785.3069-.1504.5986-.2097.8611-.4897.1223-.2006-.2671-.6902-.2671 .0629-.328.1297-.6504.1987-.9697l.7012.3757zm-1.5974-.8411c-.1195.4556-.2303.8917-.3153,1.2681-.4896.1223-.2006-.2671-.6902-.2671 .088-.4585.1836-.9061.282-1.3496 .2446.1123.4861.2295.7235.3486z" fill="#2a1003"/>
 <path d="m164.14 136.27c1.0455-3.4046 3.5596-5.3192 8.3368-5.5579-2.7709-1.0271-8.6986 0.5873-8.3368 5.5579z" fill="#5e4032"/>
 <path d="m160.111,137.57c-2.5373-1.503-4.7158-1.6108-8.0824-.1483 1.1103-1.6166 6.4203-3.1867 8.0824.1483z" fill="#5e4032" stroke="#23201d" stroke-width=".0762"/>
 <path d="m153.526,143.427c3.1467.1907 4.6489.0877 7.1713-2.1561-2.3614-1.1838-5.6051-1.05-7.3447.6466 .0528.4862.1106.9894.1734,1.5095z" fill="#fffff3"/>
 <path d="m167.006,139.301c4.0563-.5928 5.6556-.7761 7.9602-3.917-3.2723-.8492-7.4706.6244-7.9602,3.917z" fill="#fffff3"/>
 <path transform="matrix(.34981 .11546 -.10989 .36757 157.88 141.79)" d="m3.339 0a3.339 3.0555 0 1 0 -6.678 0 3.339 3.0555 0 1 0 6.678 0" fill="#7e929b"/>
 <path d="m159.954,140.809c-2.9984-.0466-4.3924-.131-7.0698,1.2518-.1791.0925-.3051.111-.3051.111 2.6007-2.6018 6.2567-1.8843 7.3749-1.3628z" fill="#150704"/>
 <path transform="matrix(.34981 .11546 -.10989 .36757 172.67 136.22)" d="m3.339 0a3.339 3.0555 0 1 0 -6.678 0 3.339 3.0555 0 1 0 6.678 0" fill="#7e929b"/>
 <path d="m174.632,134.707c-3.2555.8593-4.7881,1.191-7.263,3.4982-.1655.1543-.2961.2125-.2961.2125 2.0221-3.6017 6.1921-3.9352 7.5591-3.7107z" fill="#150704"/>
 <path d="m164.052,152.793c1.4053-.9187 2.8741-1.4212 3.9661-1.7679 .74-.2349.8796-.4964 1.6145-.8103 .9332-.3988 2.0012-.2518 3.5306-.4385-1.2079,1.7775-1.7347,2.6213-3.1116,3.2721-.9364.4426-2.74.6412-5.9996-.2554z" fill="#fa6b65"/>
 <path d="m168.609,146.03c.3019-.2453.4915-.4583.2138-.7429-2.3501-2.4078-3.9867-3.2104-4.2114-6.783-.3571,3.1421 1.2629,4.2677 3.0988,6.6168 .3389.4336.0675.66-.2447,1.1065-.2876.4113-.6808.5886-.7233.7422-.1389.5019 1.1515-.3585 1.8668-.9396z" fill="#c4ac8d"/>
 <path d="m172.173,69.8703c-.3281-.328-.8648-.328-1.1928,0l-11.7005,11.7005c-.3281.328-.3281.8647 0,1.1928s.8647.328 1.1928,0l11.7005-11.7005c.328-.3281.328-.8648 0-1.1928zm-113.38,0c.3281-.328.8648-.328 1.1928,0l9.944,9.9439c-.3822.4193-.748.848-1.1005,1.2851l-10.0363-10.0362c-.328-.3281-.328-.8648 0-1.1928zm12.8933,125.692c-.3281-.3281-.8648-.3281-1.1928,0l-5.7798,5.7798 .5461,1.8395 6.4265-6.4266c.328-.328.328-.8647 0-1.1927z" fill="#a09d68"/>
</svg>
